<?xml version="1.0" encoding="UTF-8"?><svg xmlns="http://www.w3.org/2000/svg" viewBox="0 0 293 293"><defs><style>.cls-1{fill:#c8e8f5;stroke:#000;stroke-miterlimit:10;stroke-width:5px;}</style></defs><g id="Button_Size"><circle class="cls-1" cx="146.5" cy="146.5" r="144"/></g><g id="Softer"><path d="M246.49,95.25c-.43-17.48-14.88-28.98-14.88-28.98-14.23-12.75-37.44-9.16-37.44-9.16-16.99,2.28-31.38,19.02-31.38,19.02-3.15,3.02-3.69-.13-3.69-.13-3-15.88-15.61-18.74-15.61-18.74-11.61-3.12-25.08,4.39-25.08,4.39-9.17,4.49-20.59,19.62-20.59,19.62-6.38,7.92-14.83,24.79-14.83,24.79-4.79,8.69-4.49,13.66-4.49,13.66-.3,7.14,10.05,7.12,10.05,7.12,8.78-.49,13.76-11.22,13.76-11.22,1.56-3.42,7.42-18.93,7.42-18.93,4.26-10.72,9.08-16.4,9.08-16.4,6.03-7.67,11.71-4.1,11.71-4.1,3.12,1.44,1.17,9.37,1.17,9.37-1.51,6.04-7.86,21.77-7.86,21.77-2.21,6.64-17.62,50.64-17.62,50.64-1.82,6.08-15.31,44.68-15.31,44.68-4.95,15.1-16.78,15.98-16.78,15.98-6.89,.62-22.17,1.68-22.17,1.68-6.09,.53-5.56,8.65-5.56,8.65-.09,7.68,6.21,7.52,6.21,7.52,55.58-3.54,93.1,0,93.1,0,4.29,.34,5.43-5.11,5.43-5.11,1.2-4.7-.73-7.64-.73-7.64-2.18-3.61-11.48-3.17-11.48-3.17-6.53-.47-7.65-7.47-7.65-7.47-1.4-3.92,.37-12.04,.37-12.04,1.21-5.04,7.98-23.99,7.98-23.99,3.29-7.19,12.3-2,12.3-2,11.87,6.73,33.41,6.12,33.41,6.12,17.32-.11,34.76-17.6,34.76-17.6,13.18-13.28,20.91-31.11,20.91-31.11,7.04-17.44,5.51-37.23,5.51-37.23Zm-43.4,14.63c-4.26,19.08-13.4,36.62-13.4,36.62-8.67,18.97-21.44,19.5-21.44,19.5-16.08,1.42-15.77-13.09-15.77-13.09-.72-13.92,7-34.5,7-34.5,4.94-15.49,15.7-30.3,15.7-30.3,7.72-9.96,15.61-11.66,15.61-11.66,15.54-4.02,15.45,8.67,15.45,8.67,.7,9.28-3.15,24.75-3.15,24.75Z"/></g></svg>