<?xml version="1.0" encoding="UTF-8"?><svg xmlns="http://www.w3.org/2000/svg" viewBox="0 0 293 293"><defs><style>.cls-1{fill:#c8e8f5;stroke:#000;stroke-miterlimit:10;stroke-width:5px;}</style></defs><g id="Button_Size"><circle class="cls-1" cx="146.5" cy="146.5" r="144"/></g><g id="Louder"><path d="M172.96,107.04h26.62v9.59h-28.92s-8.23,26.83-11.34,35.58c0,0-12.3,33.34-16.34,40.26,0,0-11.93,22.26-18.86,28.98,0,0-11.18,11.67-22.66,14.29,0,0-12.14,3.44-25.38-4.28,0,0-9.03-5.32-8.46-15.85,0,0-.04-10.87,7.1-16.92,0,0,5.3-5.14,14.29-2.53,0,0,7.29,1.85,8.27,8.85,0,0,.78,6.09-3.21,11.96,0,0-3.01,5.15-9.24,7.97,0,0,1.2,4.61,6.9,3.99,0,0,6.22-.88,10.21-6.71,0,0,9.04-11.09,13.22-24.89,0,0,6.52-19.55,9.14-30.05,0,0,4.57-15.46,7.39-26.25,0,0,6.03-21.2,6.61-24.6h-19.57v-9.38h25.06s4.94-12.45,11.47-21.11c0,0,9.04-11.49,19.17-18.66,0,0,7.71-6.04,19.09-9.08,0,0,14.07-3.81,21.46,0,0,0,8.36,3.61,10.01,11.96,0,0,2.38,11.8-4.5,20.95,0,0-5.78,7.62-13.83,5.94,0,0-8.4-2.12-9.16-8.82,0,0-1.53-8.06,5.34-12.56,0,0,9.25-4.5,10.35-5.85,0,0-1.23-5.51-7.3-6.02,0,0-8.19-.7-13.75,6.29,0,0-5.85,7.02-10.26,15.34,0,0-7.73,14.27-8.95,21.61Z"/></g></svg>