<?xml version="1.0" encoding="UTF-8"?><svg xmlns="http://www.w3.org/2000/svg" viewBox="0 0 293 293"><defs><style>.cls-1{fill:#c8e8f5;stroke:#000;stroke-miterlimit:10;stroke-width:5px;}</style></defs><g id="Button_Size"><circle class="cls-1" cx="146.5" cy="146.5" r="144"/></g><g id="Pause"><path d="M119.37,62.92l8.31-6.42,50.16,41.34-24.07,30.24s-8.28,10.05-1.2,18.71c4.9,6,25.8,26.99,25.8,26.99,0,0-9.03-.41-17.77,2.61,0,0-8.73,2.33-11.21,11.85,0,0-2.98,10.96,1.85,19.23l18.66,29.03s-21.74-10.45-36.25-25.79c0,0-14.43-15.47-16.88-25.7,0,0-4.33-14.88,5.02-22.55,0,0,5.8-5.25,14.96-4.58,0,0,8.93,.33,15.51,2.9l-33.82-26.57s-8.69-7.09,.11-15.85c7.33-7.29,20.43-20.2,20.43-20.2,0,0,8.59-8.71,1.79-15.51-6.81-6.81-21.41-19.73-21.41-19.73Z"/></g></svg>